<?xml version="1.0" standalone="no"?>
<!DOCTYPE svg PUBLIC "-//W3C//DTD SVG 20010904//EN"
 "http://www.w3.org/TR/2001/REC-SVG-20010904/DTD/svg10.dtd">
<svg version="1.0" xmlns="http://www.w3.org/2000/svg"
 width="600.000000pt" height="600.000000pt" viewBox="0 0 600.000000 600.000000"
 preserveAspectRatio="xMidYMid meet">
<rect width="100%" height="100%" fill="white"/>

<g transform="translate(0.000000,600.000000) scale(0.100000,-0.100000)"
fill="#000000" stroke="none">
<path d="M1400 3255 l0 -1645 205 0 205 0 0 1003 c0 889 -6 1333 -25 1842 -6
169 -6 170 55 -35 132 -440 360 -1130 750 -2270 61 -179 128 -373 147 -433
l36 -107 198 0 c178 0 198 2 204 18 4 9 34 91 67 182 33 91 73 199 88 240 15
41 56 152 90 245 34 94 75 204 90 245 307 828 584 1621 669 1912 21 73 44 134
51 136 10 4 11 -3 5 -29 -4 -19 -11 -690 -14 -1492 l-6 -1457 213 0 212 0 0
1645 0 1645 -317 -2 -318 -3 -47 -125 c-27 -69 -68 -177 -92 -240 -144 -375
-334 -879 -426 -1130 -21 -58 -53 -143 -70 -190 -18 -47 -35 -96 -40 -110 -5
-14 -23 -63 -40 -110 -17 -47 -35 -96 -40 -110 -4 -14 -31 -90 -60 -170 -67
-189 -154 -451 -170 -517 -13 -50 -30 -71 -30 -38 0 39 -187 618 -380 1175
-50 146 -95 276 -100 290 -10 31 -111 317 -178 505 -28 77 -71 199 -96 270
-26 72 -77 213 -114 315 l-68 185 -327 3 -327 2 0 -1645z"/>
</g>
</svg>
